<svg width="912" height="226" viewBox="0 0 912 226" fill="none" xmlns="http://www.w3.org/2000/svg">
<path d="M0.116405 222H-2.88359V225H0.116405V222ZM41.2164 222V225H44.2164V222H41.2164ZM41.2164 0.299995H44.2164V-2.7H41.2164V0.299995ZM0.116405 0.299995V-2.7H-2.88359V0.299995H0.116405ZM0.116405 225H41.2164V219H0.116405V225ZM44.2164 222L44.2164 0.299995H38.2164L38.2164 222H44.2164ZM41.2164 -2.7H0.116405L0.116405 3.3H41.2164V-2.7ZM-2.88359 0.299995L-2.88359 222H3.11641L3.11641 0.299995H-2.88359ZM81.8055 222H78.8055V225H81.8055V222ZM121.705 222V225H124.705V222H121.705ZM128.005 104.7L130.56 106.272L130.586 106.231L130.61 106.188L128.005 104.7ZM181.105 98.4L178.784 100.3L178.792 100.31L178.801 100.321L181.105 98.4ZM189.505 222H186.505V225H189.505V222ZM229.405 222V225H232.405V222H229.405ZM218.605 77.4L221.146 75.8047L221.131 75.7807L221.116 75.757L218.605 77.4ZM118.705 71.7L115.705 71.7V78.8383L120.805 73.8431L118.705 71.7ZM118.705 55.8H121.705V52.8H118.705V55.8ZM81.8055 55.8V52.8H78.8055V55.8H81.8055ZM81.8055 225L121.705 225V219L81.8055 219V225ZM124.705 222L124.705 143.7L118.705 143.7L118.705 222H124.705ZM124.705 143.7C124.705 122.071 126.253 113.272 130.56 106.272L125.451 103.128C120.158 111.728 118.705 122.129 118.705 143.7L124.705 143.7ZM130.61 106.188C136.016 96.729 145.454 91.5 157.705 91.5V85.5C143.557 85.5 131.995 91.671 125.401 103.212L130.61 106.188ZM157.705 91.5C167.201 91.5 174.067 94.5345 178.784 100.3L183.427 96.5003C177.344 89.0655 168.61 85.5 157.705 85.5V91.5ZM178.801 100.321C184.026 106.59 186.505 117.822 186.505 140.7H192.505C192.505 117.978 190.185 104.61 183.41 96.4794L178.801 100.321ZM186.505 140.7L186.505 222H192.505L192.505 140.7H186.505ZM189.505 225H229.405L229.405 219H189.505V225ZM232.405 222L232.405 132.9H226.405L226.405 222H232.405ZM232.405 132.9C232.405 103.957 229.711 89.445 221.146 75.8047L216.065 78.9953C223.7 91.155 226.405 104.243 226.405 132.9H232.405ZM221.116 75.757C209.649 58.2388 189.994 48.9 165.505 48.9V54.9C188.417 54.9 205.962 63.5612 216.095 79.043L221.116 75.757ZM165.505 48.9C155.612 48.9 147.171 50.2933 139.251 53.6361C131.342 56.9746 124.136 62.181 116.606 69.5569L120.805 73.8431C127.975 66.819 134.569 62.1254 141.585 59.1638C148.59 56.2067 156.199 54.9 165.505 54.9V48.9ZM121.705 71.7V55.8H115.705V71.7L121.705 71.7ZM118.705 52.8L81.8055 52.8V58.8L118.705 58.8V52.8ZM78.8055 55.8L78.8055 222H84.8055L84.8055 55.8H78.8055ZM382.602 167.4V164.4H380.97L380.084 165.77L382.602 167.4ZM382.602 111.3L379.94 112.682L380.78 114.3H382.602V111.3ZM427.602 111.3V114.3H431.838L430.432 110.304L427.602 111.3ZM406.302 76.5L404.201 78.641L404.206 78.6465L404.212 78.6518L406.302 76.5ZM427.602 167.4L430.415 168.443L431.915 164.4H427.602V167.4ZM380.084 165.77C375.31 173.148 370.301 178.232 364.674 181.492C359.066 184.74 352.633 186.3 344.802 186.3V192.3C353.472 192.3 360.989 190.56 367.681 186.683C374.353 182.818 379.995 176.952 385.121 169.03L380.084 165.77ZM344.802 186.3C318.99 186.3 299.502 166.177 299.502 138.6H293.502C293.502 169.223 315.415 192.3 344.802 192.3V186.3ZM299.502 138.6C299.502 124.57 304.147 112.812 311.92 104.585C319.682 96.3712 330.727 91.5 343.902 91.5V85.5C329.178 85.5 316.523 90.9788 307.559 100.465C298.608 109.938 293.502 123.23 293.502 138.6H299.502ZM343.902 91.5C352.5 91.5 359.598 93.2171 365.45 96.6397C371.292 100.056 376.104 105.294 379.94 112.682L385.265 109.918C381.001 101.706 375.462 95.544 368.479 91.4603C361.507 87.3829 353.305 85.5 343.902 85.5V91.5ZM382.602 114.3L427.602 114.3V108.3L382.602 108.3V114.3ZM430.432 110.304C424.608 93.7501 419.283 84.9275 408.393 74.3482L404.212 78.6518C414.322 88.4725 419.197 96.4499 424.772 112.296L430.432 110.304ZM408.404 74.3589C391.6 57.8661 368.326 48.9 343.902 48.9V54.9C366.879 54.9 388.605 63.3339 404.201 78.641L408.404 74.3589ZM343.902 48.9C293.066 48.9 253.302 88.3229 253.302 138.9H259.302C259.302 91.6771 296.339 54.9 343.902 54.9V48.9ZM253.302 138.9C253.302 188.917 294.306 228.9 345.102 228.9V222.9C297.499 222.9 259.302 185.483 259.302 138.9H253.302ZM345.102 228.9C385.407 228.9 416.197 206.771 430.415 168.443L424.79 166.357C411.408 202.429 382.797 222.9 345.102 222.9V228.9ZM427.602 164.4H382.602V170.4H427.602V164.4ZM535.902 48.9C484.499 48.9 443.802 88.89 443.802 139.2H449.802C449.802 92.31 487.706 54.9 535.902 54.9V48.9ZM443.802 139.2C443.802 188.61 484.799 228.9 535.302 228.9V222.9C488.005 222.9 449.802 185.19 449.802 139.2H443.802ZM535.302 228.9C585.512 228.9 626.502 188.604 626.502 139.2H620.502C620.502 185.196 582.293 222.9 535.302 222.9V228.9ZM626.502 139.2C626.502 89.5364 585.853 48.9 535.902 48.9V54.9C582.552 54.9 620.502 92.8635 620.502 139.2H626.502ZM534.402 91.5C559.952 91.5 580.302 112.261 580.302 139.2H586.302C586.302 109.139 563.453 85.5 534.402 85.5V91.5ZM580.302 139.2C580.302 165.251 559.939 186.3 535.002 186.3V192.3C563.465 192.3 586.302 168.349 586.302 139.2H580.302ZM535.002 186.3C510.389 186.3 490.002 165.276 490.002 138.9H484.002C484.002 168.324 506.816 192.3 535.002 192.3V186.3ZM490.002 138.9C490.002 112.787 510.424 91.5 534.402 91.5V85.5C506.781 85.5 484.002 109.813 484.002 138.9H490.002ZM650.962 222H647.962V225H650.962V222ZM690.862 222V225H693.862V222H690.862ZM726.562 90.3L726.637 93.2991L729.562 93.2259V90.3H726.562ZM726.562 51.9H729.562V48.9H726.562V51.9ZM687.562 72H684.562V81.8299L690.05 73.6751L687.562 72ZM687.562 55.8H690.562V52.8H687.562V55.8ZM650.962 55.8V52.8H647.962V55.8H650.962ZM650.962 225H690.862V219H650.962V225ZM693.862 222V129.6H687.862V222H693.862ZM693.862 129.6C693.862 117.099 696.701 108.278 701.933 102.517C707.127 96.7963 715.144 93.5864 726.637 93.2991L726.487 87.3009C713.979 87.6136 704.146 91.1537 697.491 98.4832C690.872 105.772 687.862 116.301 687.862 129.6H693.862ZM729.562 90.3V51.9H723.562V90.3H729.562ZM726.562 48.9H723.562V54.9H726.562V48.9ZM723.562 48.9C714.765 48.9 707.811 50.0525 701.633 53.4758C695.48 56.885 690.434 62.3597 685.073 70.3249L690.05 73.6751C695.189 66.0403 699.594 61.465 704.541 58.7241C709.462 55.9974 715.258 54.9 723.562 54.9V48.9ZM690.562 72V55.8H684.562V72H690.562ZM687.562 52.8L650.962 52.8V58.8L687.562 58.8V52.8ZM647.962 55.8V222H653.962V55.8H647.962ZM910.347 156.6V159.6H912.781L913.283 157.218L910.347 156.6ZM894.447 195.9L896.729 197.847L896.755 197.816L896.781 197.785L894.447 195.9ZM907.647 172.8L910.503 173.718L911.762 169.8H907.647V172.8ZM864.147 172.8V169.8H862.76L861.861 170.857L864.147 172.8ZM781.647 156.6V153.6H777.846L778.729 157.297L781.647 156.6ZM780.447 121.5L777.567 120.66L776.447 124.5H780.447V121.5ZM872.547 121.5V124.5H876.35L875.464 120.801L872.547 121.5ZM913.283 157.218C914.532 151.282 914.847 147.471 914.847 141.3H908.847C908.847 147.129 908.561 150.518 907.411 155.982L913.283 157.218ZM914.847 141.3C914.847 88.16 877.318 48.9 826.047 48.9V54.9C873.776 54.9 908.847 91.24 908.847 141.3H914.847ZM826.047 48.9C775.49 48.9 735.447 88.9431 735.447 139.5H741.447C741.447 92.2568 778.804 54.9 826.047 54.9V48.9ZM735.447 139.5C735.447 189.869 776.205 228.9 828.447 228.9V222.9C779.289 222.9 741.447 186.331 741.447 139.5H735.447ZM828.447 228.9C856.597 228.9 878.741 218.937 896.729 197.847L892.164 193.953C875.353 213.663 854.897 222.9 828.447 222.9V228.9ZM896.781 197.785C903.229 189.802 907.655 182.578 910.503 173.718L904.791 171.882C902.239 179.822 898.265 186.398 892.113 194.015L896.781 197.785ZM907.647 169.8H864.147V175.8H907.647V169.8ZM861.861 170.857C856.956 176.628 852.27 180.425 846.975 182.816C841.671 185.211 835.527 186.3 827.547 186.3V192.3C836.067 192.3 843.123 191.139 849.444 188.284C855.774 185.425 861.138 180.972 866.433 174.743L861.861 170.857ZM827.547 186.3C804.989 186.3 788.988 174.427 784.565 155.903L778.729 157.297C783.905 178.973 802.705 192.3 827.547 192.3V186.3ZM781.647 159.6L910.347 159.6V153.6L781.647 153.6V159.6ZM783.327 122.34C786.317 112.088 791.59 104.447 798.761 99.3444C805.948 94.2307 815.277 91.5 826.647 91.5V85.5C814.316 85.5 803.696 88.4693 795.283 94.4556C786.854 100.453 780.877 109.312 777.567 120.66L783.327 122.34ZM826.647 91.5C838.48 91.5 848.022 94.3117 855.157 99.4473C862.263 104.563 867.225 112.157 869.629 122.199L875.464 120.801C872.769 109.543 867.08 100.637 858.662 94.5777C850.272 88.5382 839.414 85.5 826.647 85.5V91.5ZM872.547 118.5L780.447 118.5V124.5L872.547 124.5V118.5Z" fill="white"/>
</svg>
