<svg xmlns="http://www.w3.org/2000/svg" width="120.013" height="120.013" viewBox="0 0 512 512">
  <defs>
    <style>
      .cls-1 {
        fill: #fff;
        fill-rule: evenodd;
      }
    </style>
  </defs>
  <rect id="Прямоугольник_1" data-name="Прямоугольник 1" width="512" height="512" rx="93" ry="93"/>
  <path id="cor_" data-name="cor  " class="cls-1" d="M128.266,422.636c3.606,16.829.4,28.85-10.619,39.87-18.432,18.432-46.682,17.831-66.116-1.6-19.634-19.634-20.436-46.482-1.8-65.114C61.749,383.768,74.972,380.161,90.8,385.17l30.053-30.053c-14.626-7.012-23.642-9.216-37.466-9.016-21.438.2-42.274,9.417-58.1,25.245-32.858,32.857-33.058,83.947-.4,116.605,32.257,32.256,84.549,31.655,117.406-1.2,26.046-26.045,31.656-60.105,16.029-94.165Zm31.251-185.523c-33.258,33.259-33.659,85.35-1.2,117.807,31.856,31.856,84.348,31.455,117.006-1.2,32.457-32.457,32.857-84.949,1-116.8C244.266,204.857,191.774,204.857,159.517,237.113Zm23.441,25.445c18.233-18.232,47.484-17.831,66.517,1.2,18.433,18.432,19.034,47.884,1.2,65.715-17.631,17.631-47.082,17.03-65.715-1.6C166.53,309.44,165.728,279.788,182.958,262.558Zm173.1,5.213,26.647-26.647L321,179.415c-17.231-17.23-18.032-33.659-2.4-50.088l-25.645-25.645-2,2c-11.42,11.42-14.025,20.035-10.619,37.466l-10.819-10.819-24.443,24.443Z"/>
  <path id="e" class="cls-1" d="M511.136,104.919a64.612,64.612,0,0,0,1.5-15.3c0-51.6-36.3-89.4-85.8-89.4-48.9,0-87.6,38.7-87.6,87.6,0,48.6,39.3,86.4,90,86.4,27.3,0,48.6-9.6,66-30,6.3-7.8,10.5-14.7,13.2-23.1h-43.5c-10.2,12-20.1,16.5-36.6,16.5-23.7,0-41.1-12.6-45.9-32.7h128.7Zm-129.9-35.1c6.3-21.6,22.5-33,46.2-33,24.6,0,40.8,11.7,45.9,33h-92.1Z"/>
</svg>
